<?xml version="1.0" encoding="UTF-8" standalone="no"?>
<!DOCTYPE svg PUBLIC "-//W3C//DTD SVG 1.1//EN"
 "http://www.w3.org/Graphics/SVG/1.1/DTD/svg11.dtd">
<!-- Generated by graphviz version 2.40.1 (20161225.0304)
 -->
<!-- Title: fast_api.h Pages: 1 -->
<svg width="146pt" height="88pt"
 viewBox="0.00 0.00 146.00 88.00" xmlns="http://www.w3.org/2000/svg" xmlns:xlink="http://www.w3.org/1999/xlink">
<g id="graph0" class="graph" transform="scale(1 1) rotate(0) translate(4 84)">
<title>fast_api.h</title>
<!-- Node0 -->
<g id="node1" class="node">
<title>Node0</title>
<g id="a_node1"><a xlink:title="Details the functions, structures, enums and macros implemented in the smart fabric driver.">
<polygon fill="#bfbfbf" stroke="#000000" points="32.5,-58.5 32.5,-79.5 100.5,-79.5 100.5,-58.5 32.5,-58.5"/>
<text text-anchor="middle" x="66.5" y="-65.9" font-family="Helvetica,sans-Serif" font-size="12.00" fill="#000000">fast_api.h</text>
</a>
</g>
</g>
<!-- Node1 -->
<g id="node2" class="node">
<title>Node1</title>
<g id="a_node2"><a xlink:title=" ">
<polygon fill="none" stroke="#bfbfbf" points="0,-.5 0,-21.5 55,-21.5 55,-.5 0,-.5"/>
<text text-anchor="middle" x="27.5" y="-7.9" font-family="Helvetica,sans-Serif" font-size="12.00" fill="#000000">stdint.h</text>
</a>
</g>
</g>
<!-- Node0&#45;&gt;Node1 -->
<g id="edge1" class="edge">
<title>Node0&#45;&gt;Node1</title>
<path fill="none" stroke="#191970" d="M59.3468,-58.3619C54.0142,-50.4313 46.5888,-39.3885 40.2494,-29.9606"/>
<polygon fill="#191970" stroke="#191970" points="43.0923,-27.9161 34.6079,-21.5707 37.2834,-31.8221 43.0923,-27.9161"/>
</g>
<!-- Node2 -->
<g id="node3" class="node">
<title>Node2</title>
<g id="a_node3"><a xlink:title=" ">
<polygon fill="none" stroke="#bfbfbf" points="73,-.5 73,-21.5 138,-21.5 138,-.5 73,-.5"/>
<text text-anchor="middle" x="105.5" y="-7.9" font-family="Helvetica,sans-Serif" font-size="12.00" fill="#000000">stdbool.h</text>
</a>
</g>
</g>
<!-- Node0&#45;&gt;Node2 -->
<g id="edge2" class="edge">
<title>Node0&#45;&gt;Node2</title>
<path fill="none" stroke="#191970" d="M73.6532,-58.3619C78.9858,-50.4313 86.4112,-39.3885 92.7506,-29.9606"/>
<polygon fill="#191970" stroke="#191970" points="95.7166,-31.8221 98.3921,-21.5707 89.9077,-27.9161 95.7166,-31.8221"/>
</g>
</g>
</svg>
