<svg id="svg" version="1.1" width="400" height="176.5416561792097" viewBox="0 0 400 176.5416561792097" xmlns="http://www.w3.org/2000/svg" xmlns:xlink="http://www.w3.org/1999/xlink" ><g id="svgg"><path id="path0" d="M193.046 48.609 C 192.195 48.910,190.924 50.255,190.772 51.014 C 190.593 51.908,190.652 112.268,190.834 113.849 C 191.738 121.746,195.656 125.587,204.250 127.004 C 208.572 127.716,209.990 127.204,210.490 124.749 C 211.843 118.116,211.612 117.043,208.646 116.161 C 205.921 115.351,204.680 114.240,203.859 111.873 C 203.610 111.155,203.577 108.371,203.501 81.250 L 203.417 51.417 203.063 50.667 C 202.606 49.699,201.771 48.914,200.853 48.590 C 199.834 48.231,194.076 48.244,193.046 48.609 M141.167 51.270 C 119.483 53.227,106.449 72.512,109.929 97.489 C 112.156 113.471,121.400 124.025,135.833 127.065 C 140.787 128.108,150.910 128.079,157.417 127.002 C 164.479 125.833,166.109 125.180,167.686 122.889 C 168.852 121.194,168.833 121.464,168.833 106.298 C 168.833 90.896,168.888 91.554,167.500 90.167 C 165.671 88.337,159.055 88.197,157.014 89.944 C 155.508 91.233,155.594 90.522,155.500 102.333 L 155.417 112.750 154.925 113.637 C 154.344 114.686,153.562 115.348,152.417 115.759 C 151.043 116.252,142.336 116.216,140.231 115.709 C 129.320 113.078,123.426 103.891,123.419 89.500 C 123.407 68.226,137.093 58.431,157.873 64.841 C 160.867 65.764,161.208 65.800,162.657 65.349 C 164.163 64.881,165.382 63.871,165.896 62.667 C 167.961 57.828,167.759 56.269,164.884 54.845 C 159.773 52.313,148.475 50.610,141.167 51.270 M317.417 69.912 C 304.482 72.662,296.673 83.549,296.673 98.833 C 296.673 120.665,311.688 131.490,335.396 126.749 C 341.833 125.462,342.820 124.503,342.080 120.259 C 341.429 116.522,339.038 114.795,335.583 115.566 C 327.327 117.410,319.191 116.533,315.167 113.366 C 311.886 110.784,309.506 105.776,310.659 103.884 C 311.402 102.665,310.042 102.759,328.256 102.667 L 344.609 102.583 345.206 102.128 C 346.280 101.309,346.397 100.700,346.280 96.538 C 345.959 85.156,342.944 78.084,336.417 73.407 C 331.744 70.058,323.692 68.577,317.417 69.912 M234.582 71.559 C 233.722 71.959,232.893 72.768,232.378 73.711 C 231.925 74.539,231.926 105.730,232.379 108.667 C 233.983 119.062,238.488 124.729,247.000 127.056 C 251.582 128.309,261.297 128.243,268.641 126.910 C 275.477 125.669,276.088 125.400,277.301 123.101 L 277.750 122.250 277.750 98.417 L 277.750 74.583 277.374 73.880 C 276.182 71.649,275.113 71.166,271.370 71.168 C 267.697 71.170,266.600 71.649,265.449 73.750 L 265.083 74.417 265.000 94.333 L 264.917 114.250 264.564 114.799 C 263.606 116.290,262.815 116.512,258.080 116.620 C 249.678 116.811,246.826 114.703,245.292 107.167 C 244.948 105.476,244.933 104.892,244.843 90.000 C 244.739 72.817,244.832 74.073,243.558 72.659 C 242.160 71.109,236.926 70.467,234.582 71.559 M325.471 80.679 C 329.231 81.684,331.961 84.708,333.018 89.037 C 333.471 90.896,333.369 91.525,332.478 92.373 L 331.819 93.000 322.035 92.999 C 310.865 92.999,311.477 93.077,310.804 91.555 C 310.471 90.803,310.470 90.761,310.756 89.685 C 312.592 82.764,318.878 78.918,325.471 80.679 M69.807 92.566 C 69.671 92.667,68.333 94.475,66.834 96.583 C 65.336 98.692,63.691 100.994,63.180 101.700 C 62.668 102.406,61.468 104.093,60.512 105.450 C 59.556 106.807,58.313 108.554,57.748 109.333 C 57.183 110.112,55.982 111.800,55.078 113.083 C 54.175 114.367,52.960 116.088,52.380 116.908 C 49.727 120.653,50.541 124.776,54.295 126.613 C 55.386 127.146,54.427 127.108,64.833 127.035 L 71.750 126.986 73.095 125.118 C 76.531 120.345,79.423 116.361,79.865 115.792 L 80.349 115.167 74.508 115.167 C 71.295 115.167,68.667 115.134,68.667 115.094 C 68.667 114.970,70.546 112.284,73.821 107.726 C 75.181 105.835,76.255 104.322,78.066 101.750 C 78.841 100.650,79.555 99.659,79.654 99.549 C 79.753 99.438,79.833 99.308,79.833 99.259 C 79.833 99.210,80.171 98.727,80.583 98.184 C 81.440 97.058,81.431 97.080,81.042 97.045 C 80.881 97.031,78.343 95.976,75.402 94.701 C 71.220 92.887,70.000 92.422,69.807 92.566 M0.000 156.333 L 0.000 176.500 200.000 176.500 L 400.000 176.500 400.000 156.333 L 400.000 136.167 394.667 136.167 L 389.333 136.167 389.333 150.917 L 389.333 165.667 200.000 165.667 L 10.667 165.667 10.667 150.917 L 10.667 136.167 5.333 136.167 L 0.000 136.167 0.000 156.333 " stroke="none" fill="#333333" fill-rule="evenodd"></path><path id="path1" d="M79.927 115.708 C 79.696 116.006,78.368 117.825,76.976 119.750 C 75.583 121.675,73.857 124.052,73.139 125.033 C 72.421 126.014,71.833 126.860,71.833 126.914 C 71.833 126.968,76.427 126.991,82.042 126.964 L 92.250 126.917 93.199 126.472 C 98.355 124.055,97.455 116.540,91.867 115.354 C 91.318 115.238,88.968 115.167,85.666 115.167 L 80.348 115.167 79.927 115.708 " stroke="none" fill="#0a8d99" fill-rule="evenodd"></path><path id="path2" d="M74.167 69.453 C 74.167 69.527,73.997 69.773,73.789 70.002 C 73.446 70.378,68.286 76.773,65.705 80.019 L 64.661 81.333 71.080 81.333 C 74.611 81.333,77.500 81.375,77.500 81.427 C 77.500 81.515,74.524 85.797,73.431 87.281 C 73.148 87.665,72.467 88.624,71.917 89.413 C 71.367 90.202,70.703 91.126,70.443 91.466 C 69.885 92.192,69.510 92.859,69.827 92.561 C 69.978 92.419,71.381 92.958,75.548 94.758 C 78.585 96.071,81.162 97.093,81.275 97.029 C 81.465 96.923,84.101 93.285,88.242 87.417 C 89.147 86.133,90.352 84.446,90.919 83.667 C 94.903 78.196,95.375 77.326,95.401 75.417 C 95.432 73.120,94.232 71.124,92.135 69.987 L 91.083 69.417 82.625 69.368 C 77.973 69.341,74.167 69.379,74.167 69.453 " stroke="none" fill="#ec1c24" fill-rule="evenodd"></path><path id="path3" d="M0.000 88.500 L 0.000 136.167 5.333 136.167 L 10.667 136.167 10.667 88.500 L 10.667 40.833 5.333 40.833 L 0.000 40.833 0.000 88.500 M389.333 88.500 L 389.333 136.167 394.667 136.167 L 400.000 136.167 400.000 88.500 L 400.000 40.833 394.667 40.833 L 389.333 40.833 389.333 88.500 M56.558 72.208 C 55.297 73.790,54.223 75.121,54.173 75.167 C 54.122 75.212,53.407 76.094,52.582 77.127 C 51.546 78.424,51.006 78.974,50.833 78.909 C 50.136 78.644,52.067 80.260,52.996 80.718 L 54.075 81.250 59.354 81.298 L 64.633 81.346 66.013 79.632 C 66.773 78.688,68.748 76.229,70.403 74.167 C 72.058 72.104,73.582 70.230,73.789 70.002 C 73.997 69.773,74.167 69.530,74.167 69.460 C 74.167 69.390,70.721 69.333,66.509 69.333 L 58.852 69.333 56.558 72.208 " stroke="none" fill="#bc8257" fill-rule="evenodd"></path><path id="path4" d="M0.000 20.417 L 0.000 40.833 5.333 40.833 L 10.667 40.833 10.667 25.833 L 10.667 10.833 200.000 10.833 L 389.333 10.833 389.333 25.833 L 389.333 40.833 394.667 40.833 L 400.000 40.833 400.000 20.417 L 400.000 0.000 200.000 0.000 L 0.000 0.000 0.000 20.417 M53.917 69.567 C 50.092 70.780,48.341 75.237,50.457 78.375 C 51.007 79.191,50.867 79.273,52.583 77.125 C 53.407 76.094,54.121 75.212,54.171 75.167 C 54.220 75.121,55.153 73.958,56.244 72.583 C 57.335 71.208,58.377 69.915,58.560 69.708 L 58.891 69.333 56.737 69.344 C 55.491 69.351,54.302 69.445,53.917 69.567 " stroke="none" fill="#f4b932" fill-rule="evenodd"></path></g></svg>